<svg id="visual" viewBox="0 0 960 540" width="960" height="540" xmlns="http://www.w3.org/2000/svg" xmlns:xlink="http://www.w3.org/1999/xlink" version="1.1"><rect width="960" height="540" fill="#4dc8e6"></rect><g><g transform="translate(260 287)"><path d="M38.7 -46C48.4 -38 53.4 -24.1 56.1 -9.8C58.7 4.6 59 19.4 53.5 32.5C47.9 45.7 36.4 57 23.2 60.3C10.1 63.6 -4.8 58.7 -19.8 53.6C-34.8 48.5 -50.1 43.1 -56.6 32.4C-63.1 21.7 -61 5.6 -57 -8.8C-52.9 -23.2 -47 -36.1 -37.2 -44.1C-27.4 -52 -13.7 -55.2 0.4 -55.6C14.5 -56.1 29 -54 38.7 -46Z" fill="#e0ecfa"></path></g><g transform="translate(646 268)"><path d="M22.5 -27C28.2 -21.9 31.5 -14 32.5 -6.1C33.5 1.9 32.2 9.9 28.3 16C24.4 22.1 17.8 26.4 10.5 29.3C3.2 32.2 -4.8 33.7 -12.6 32C-20.4 30.3 -28 25.4 -32.1 18.4C-36.2 11.5 -36.9 2.4 -34.8 -5.6C-32.7 -13.5 -27.8 -20.5 -21.6 -25.5C-15.3 -30.6 -7.7 -33.7 0.3 -34.1C8.3 -34.5 16.7 -32.2 22.5 -27Z" fill="#e0ecfa"></path></g><g transform="translate(377 436)"><path d="M32.1 -39.5C39.8 -31.7 43.1 -20 44.6 -8.3C46.2 3.3 45.9 14.9 41 24C36.1 33.2 26.6 40 16.4 42.8C6.1 45.6 -4.8 44.5 -14.1 40.3C-23.3 36.2 -30.9 29.2 -36.3 20.6C-41.7 11.9 -45 1.7 -44.7 -9.2C-44.3 -20.2 -40.4 -31.8 -32.4 -39.6C-24.3 -47.3 -12.2 -51 0 -51C12.2 -51 24.3 -47.3 32.1 -39.5Z" fill="#e0ecfa"></path></g><g transform="translate(731 77)"><path d="M20.6 -24.2C25.9 -20.1 28.9 -12.9 29.7 -5.6C30.5 1.6 29.1 8.8 25.5 14.4C21.9 20 16 23.9 9.7 25.9C3.3 27.9 -3.5 28 -10.5 26.5C-17.6 25 -24.9 21.8 -28.9 16.1C-32.8 10.4 -33.3 2.2 -31.6 -5.2C-29.8 -12.5 -25.7 -19.1 -20 -23.2C-14.4 -27.2 -7.2 -28.8 0.2 -29.1C7.7 -29.3 15.3 -28.4 20.6 -24.2Z" fill="#e0ecfa"></path></g><g transform="translate(840 210)"><path d="M29.4 -36.5C37.6 -28.1 43.5 -18.4 46.9 -7.1C50.4 4.3 51.4 17.3 46.6 28.3C41.9 39.4 31.4 48.5 20 51C8.5 53.5 -4 49.3 -14.5 43.8C-25 38.2 -33.5 31.2 -39 22.2C-44.6 13.3 -47.1 2.3 -46.4 -9.3C-45.7 -20.8 -41.7 -32.9 -33.4 -41.2C-25.1 -49.6 -12.6 -54.3 -1 -53.1C10.6 -51.9 21.1 -44.8 29.4 -36.5Z" fill="#e0ecfa"></path></g></g></svg>