<svg id="visual" viewBox="0 0 960 540" width="960" height="540" xmlns="http://www.w3.org/2000/svg" xmlns:xlink="http://www.w3.org/1999/xlink" version="1.1"><rect x="0" y="0" width="960" height="540" fill="#001220"></rect><path d="M0 386L22.8 382C45.7 378 91.3 370 137 370C182.7 370 228.3 378 274 379.5C319.7 381 365.3 376 411.2 366.8C457 357.7 503 344.3 548.8 347.3C594.7 350.3 640.3 369.7 686 379.5C731.7 389.3 777.3 389.7 823 384.7C868.7 379.7 914.3 369.3 937.2 364.2L960 359L960 541L937.2 541C914.3 541 868.7 541 823 541C777.3 541 731.7 541 686 541C640.3 541 594.7 541 548.8 541C503 541 457 541 411.2 541C365.3 541 319.7 541 274 541C228.3 541 182.7 541 137 541C91.3 541 45.7 541 22.8 541L0 541Z" fill="#fa7268"></path><path d="M0 369L22.8 377.7C45.7 386.3 91.3 403.7 137 413.8C182.7 424 228.3 427 274 418C319.7 409 365.3 388 411.2 380.7C457 373.3 503 379.7 548.8 385.3C594.7 391 640.3 396 686 399.8C731.7 403.7 777.3 406.3 823 398.7C868.7 391 914.3 373 937.2 364L960 355L960 541L937.2 541C914.3 541 868.7 541 823 541C777.3 541 731.7 541 686 541C640.3 541 594.7 541 548.8 541C503 541 457 541 411.2 541C365.3 541 319.7 541 274 541C228.3 541 182.7 541 137 541C91.3 541 45.7 541 22.8 541L0 541Z" fill="#ef5f67"></path><path d="M0 459L22.8 452.2C45.7 445.3 91.3 431.7 137 429.5C182.7 427.3 228.3 436.7 274 433.5C319.7 430.3 365.3 414.7 411.2 412.7C457 410.7 503 422.3 548.8 421.5C594.7 420.7 640.3 407.3 686 407C731.7 406.7 777.3 419.3 823 421.7C868.7 424 914.3 416 937.2 412L960 408L960 541L937.2 541C914.3 541 868.7 541 823 541C777.3 541 731.7 541 686 541C640.3 541 594.7 541 548.8 541C503 541 457 541 411.2 541C365.3 541 319.7 541 274 541C228.3 541 182.7 541 137 541C91.3 541 45.7 541 22.8 541L0 541Z" fill="#e34c67"></path><path d="M0 435L22.8 439.2C45.7 443.3 91.3 451.7 137 453.7C182.7 455.7 228.3 451.3 274 456C319.7 460.7 365.3 474.3 411.2 473.3C457 472.3 503 456.7 548.8 449.7C594.7 442.7 640.3 444.3 686 450.5C731.7 456.7 777.3 467.3 823 472.8C868.7 478.3 914.3 478.7 937.2 478.8L960 479L960 541L937.2 541C914.3 541 868.7 541 823 541C777.3 541 731.7 541 686 541C640.3 541 594.7 541 548.8 541C503 541 457 541 411.2 541C365.3 541 319.7 541 274 541C228.3 541 182.7 541 137 541C91.3 541 45.7 541 22.8 541L0 541Z" fill="#d53867"></path><path d="M0 503L22.8 502.3C45.7 501.7 91.3 500.3 137 499.7C182.7 499 228.3 499 274 496C319.7 493 365.3 487 411.2 485.8C457 484.7 503 488.3 548.8 492C594.7 495.7 640.3 499.3 686 501.7C731.7 504 777.3 505 823 502.3C868.7 499.7 914.3 493.3 937.2 490.2L960 487L960 541L937.2 541C914.3 541 868.7 541 823 541C777.3 541 731.7 541 686 541C640.3 541 594.7 541 548.8 541C503 541 457 541 411.2 541C365.3 541 319.7 541 274 541C228.3 541 182.7 541 137 541C91.3 541 45.7 541 22.8 541L0 541Z" fill="#c62368"></path></svg>