<svg id="visual" viewBox="0 0 900 600" width="900" height="600" xmlns="http://www.w3.org/2000/svg" xmlns:xlink="http://www.w3.org/1999/xlink" version="1.1"><rect x="0" y="0" width="900" height="600" fill="#c0d3f1"></rect><path d="M0 441L21.5 440.2C43 439.3 86 437.7 128.8 422.8C171.7 408 214.3 380 257.2 375.8C300 371.7 343 391.3 385.8 397.3C428.7 403.3 471.3 395.7 514.2 386.7C557 377.7 600 367.3 642.8 372.3C685.7 377.3 728.3 397.7 771.2 398.7C814 399.7 857 381.3 878.5 372.2L900 363L900 601L878.5 601C857 601 814 601 771.2 601C728.3 601 685.7 601 642.8 601C600 601 557 601 514.2 601C471.3 601 428.7 601 385.8 601C343 601 300 601 257.2 601C214.3 601 171.7 601 128.8 601C86 601 43 601 21.5 601L0 601Z" fill="#3668c8"></path><path d="M0 435L21.5 430.7C43 426.3 86 417.7 128.8 411.3C171.7 405 214.3 401 257.2 406.2C300 411.3 343 425.7 385.8 437.3C428.7 449 471.3 458 514.2 464.3C557 470.7 600 474.3 642.8 463C685.7 451.7 728.3 425.3 771.2 415C814 404.7 857 410.3 878.5 413.2L900 416L900 601L878.5 601C857 601 814 601 771.2 601C728.3 601 685.7 601 642.8 601C600 601 557 601 514.2 601C471.3 601 428.7 601 385.8 601C343 601 300 601 257.2 601C214.3 601 171.7 601 128.8 601C86 601 43 601 21.5 601L0 601Z" fill="#0c83d7"></path><path d="M0 441L21.5 440.5C43 440 86 439 128.8 448.8C171.7 458.7 214.3 479.3 257.2 481.2C300 483 343 466 385.8 460.8C428.7 455.7 471.3 462.3 514.2 463.2C557 464 600 459 642.8 458C685.7 457 728.3 460 771.2 460.5C814 461 857 459 878.5 458L900 457L900 601L878.5 601C857 601 814 601 771.2 601C728.3 601 685.7 601 642.8 601C600 601 557 601 514.2 601C471.3 601 428.7 601 385.8 601C343 601 300 601 257.2 601C214.3 601 171.7 601 128.8 601C86 601 43 601 21.5 601L0 601Z" fill="#009ce0"></path><path d="M0 505L21.5 506C43 507 86 509 128.8 513C171.7 517 214.3 523 257.2 520C300 517 343 505 385.8 505.3C428.7 505.7 471.3 518.3 514.2 525C557 531.7 600 532.3 642.8 530.7C685.7 529 728.3 525 771.2 520C814 515 857 509 878.5 506L900 503L900 601L878.5 601C857 601 814 601 771.2 601C728.3 601 685.7 601 642.8 601C600 601 557 601 514.2 601C471.3 601 428.7 601 385.8 601C343 601 300 601 257.2 601C214.3 601 171.7 601 128.8 601C86 601 43 601 21.5 601L0 601Z" fill="#1eb3e5"></path><path d="M0 566L21.5 567C43 568 86 570 128.8 566.8C171.7 563.7 214.3 555.3 257.2 550.7C300 546 343 545 385.8 544C428.7 543 471.3 542 514.2 539.8C557 537.7 600 534.3 642.8 533.5C685.7 532.7 728.3 534.3 771.2 541.5C814 548.7 857 561.3 878.5 567.7L900 574L900 601L878.5 601C857 601 814 601 771.2 601C728.3 601 685.7 601 642.8 601C600 601 557 601 514.2 601C471.3 601 428.7 601 385.8 601C343 601 300 601 257.2 601C214.3 601 171.7 601 128.8 601C86 601 43 601 21.5 601L0 601Z" fill="#4dc9e6"></path></svg>