<svg id="visual" viewBox="0 0 960 540" width="960" height="540" xmlns="http://www.w3.org/2000/svg" xmlns:xlink="http://www.w3.org/1999/xlink" version="1.1"><rect x="0" y="0" width="960" height="540" fill="#c0d3f1"></rect><path d="M0 397L22.8 396.3C45.7 395.7 91.3 394.3 137 381C182.7 367.7 228.3 342.3 274 338.5C319.7 334.7 365.3 352.3 411.2 357.7C457 363 503 356 548.8 347.8C594.7 339.7 640.3 330.3 686 334.8C731.7 339.3 777.3 357.7 823 358.7C868.7 359.7 914.3 343.3 937.2 335.2L960 327L960 541L937.2 541C914.3 541 868.7 541 823 541C777.3 541 731.7 541 686 541C640.3 541 594.7 541 548.8 541C503 541 457 541 411.2 541C365.3 541 319.7 541 274 541C228.3 541 182.7 541 137 541C91.3 541 45.7 541 22.8 541L0 541Z" fill="#3668c8"></path><path d="M0 391L22.8 387.2C45.7 383.3 91.3 375.7 137 370.2C182.7 364.7 228.3 361.3 274 366C319.7 370.7 365.3 383.3 411.2 393.7C457 404 503 412 548.8 417.7C594.7 423.3 640.3 426.7 686 416.5C731.7 406.3 777.3 382.7 823 373.3C868.7 364 914.3 369 937.2 371.5L960 374L960 541L937.2 541C914.3 541 868.7 541 823 541C777.3 541 731.7 541 686 541C640.3 541 594.7 541 548.8 541C503 541 457 541 411.2 541C365.3 541 319.7 541 274 541C228.3 541 182.7 541 137 541C91.3 541 45.7 541 22.8 541L0 541Z" fill="#0c83d7"></path><path d="M0 397L22.8 396.5C45.7 396 91.3 395 137 403.8C182.7 412.7 228.3 431.3 274 433C319.7 434.7 365.3 419.3 411.2 414.7C457 410 503 416 548.8 416.8C594.7 417.7 640.3 413.3 686 412.3C731.7 411.3 777.3 413.7 823 414C868.7 414.3 914.3 412.7 937.2 411.8L960 411L960 541L937.2 541C914.3 541 868.7 541 823 541C777.3 541 731.7 541 686 541C640.3 541 594.7 541 548.8 541C503 541 457 541 411.2 541C365.3 541 319.7 541 274 541C228.3 541 182.7 541 137 541C91.3 541 45.7 541 22.8 541L0 541Z" fill="#009ce0"></path><path d="M0 455L22.8 455.7C45.7 456.3 91.3 457.7 137 461.2C182.7 464.7 228.3 470.3 274 467.7C319.7 465 365.3 454 411.2 454.3C457 454.7 503 466.3 548.8 472.3C594.7 478.3 640.3 478.7 686 477C731.7 475.3 777.3 471.7 823 467.3C868.7 463 914.3 458 937.2 455.5L960 453L960 541L937.2 541C914.3 541 868.7 541 823 541C777.3 541 731.7 541 686 541C640.3 541 594.7 541 548.8 541C503 541 457 541 411.2 541C365.3 541 319.7 541 274 541C228.3 541 182.7 541 137 541C91.3 541 45.7 541 22.8 541L0 541Z" fill="#1eb3e5"></path><path d="M0 510L22.8 510.8C45.7 511.7 91.3 513.3 137 510.3C182.7 507.3 228.3 499.7 274 495.3C319.7 491 365.3 490 411.2 489C457 488 503 487 548.8 485C594.7 483 640.3 480 686 479.3C731.7 478.7 777.3 480.3 823 486.8C868.7 493.3 914.3 504.7 937.2 510.3L960 516L960 541L937.2 541C914.3 541 868.7 541 823 541C777.3 541 731.7 541 686 541C640.3 541 594.7 541 548.8 541C503 541 457 541 411.2 541C365.3 541 319.7 541 274 541C228.3 541 182.7 541 137 541C91.3 541 45.7 541 22.8 541L0 541Z" fill="#4dc9e6"></path></svg>